<?xml version="1.0" encoding="iso-8859-1"?>
<!-- Generator: Adobe Illustrator 15.0.0, SVG Export Plug-In . SVG Version: 6.00 Build 0)  -->
<!DOCTYPE svg PUBLIC "-//W3C//DTD SVG 1.1//EN" "http://www.w3.org/Graphics/SVG/1.1/DTD/svg11.dtd">
<svg version="1.1" id="Layer_1" xmlns="http://www.w3.org/2000/svg" xmlns:xlink="http://www.w3.org/1999/xlink" x="0px" y="0px"
	 width="141px" height="135.032px" viewBox="0 0 141 135.032" style="enable-background:new 0 0 141 135.032;" xml:space="preserve"
	>
<g>
	<ellipse style="fill:none;stroke:#000000;stroke-width:2;stroke-miterlimit:10;" cx="60.626" cy="8.33" rx="7.374" ry="7.33"/>
	<ellipse style="fill:none;stroke:#000000;stroke-miterlimit:10;" cx="60.626" cy="8.33" rx="3.577" ry="3.555"/>
	<ellipse style="fill:none;stroke:#000000;stroke-width:2;stroke-miterlimit:10;" cx="60.626" cy="39.506" rx="7.374" ry="7.33"/>
	<ellipse style="fill:none;stroke:#000000;stroke-miterlimit:10;" cx="60.626" cy="39.505" rx="3.577" ry="3.555"/>
	<ellipse style="fill:none;stroke:#000000;stroke-width:2;stroke-miterlimit:10;" cx="34.489" cy="23.917" rx="7.374" ry="7.33"/>
	<line style="fill:none;stroke:#000000;stroke-width:2;stroke-miterlimit:10;" x1="40.395" y1="20.692" x2="54.414" y2="12.116"/>
	<line style="fill:none;stroke:#000000;stroke-width:2;stroke-miterlimit:10;" x1="41.113" y1="27.841" x2="54.414" y2="36.061"/>
	<ellipse style="fill:none;stroke:#000000;stroke-miterlimit:10;" cx="34.49" cy="23.917" rx="3.576" ry="3.556"/>
</g>
<g>
	<polygon style="fill:#FFFFFF;stroke:#000000;stroke-width:4;stroke-miterlimit:10;" points="139,84.011 130.999,84.011 131,93.011 
		113,84.011 77,84.011 77,51.011 139,51.011 	"/>
	<line style="fill:none;stroke:#000000;stroke-width:2;stroke-miterlimit:10;" x1="85.5" y1="61.011" x2="130.5" y2="61.011"/>
	<line style="fill:none;stroke:#000000;stroke-width:2;stroke-miterlimit:10;" x1="85.5" y1="67.011" x2="130" y2="67.011"/>
	<line style="fill:none;stroke:#000000;stroke-width:2;stroke-miterlimit:10;" x1="85.5" y1="73.011" x2="102" y2="73.011"/>
</g>
<g>
	<path style="fill:none;stroke:#000000;stroke-width:3;stroke-miterlimit:10;" d="M117.5,129.032c-17.856,6.163-28.541,5.836-45,0
		v-27c16.815-6.625,27.243-5.398,45,0V129.032z"/>
	<polygon style="fill:none;stroke:#000000;stroke-width:2;stroke-miterlimit:10;" points="90.5,106.532 90.5,124.532 104,115.532 	
		"/>
</g>
<g>
	<path style="fill:none;stroke:#000000;stroke-width:2;stroke-miterlimit:10;" d="M32.206,86.474"/>
	<g>
		<rect x="8" y="68.011" style="fill:#FFFFFF;stroke:#000000;stroke-width:2;stroke-miterlimit:10;" width="48" height="38"/>
		
			<ellipse style="fill:#FFFFFF;stroke:#000000;stroke-width:2;stroke-miterlimit:10;" cx="19.383" cy="79.34" rx="5.169" ry="5.309"/>
		<path style="fill:#FFFFFF;stroke:#000000;stroke-width:2;stroke-miterlimit:10;" d="M41.405,84.718L56,100.963V85.885
			c-0.582,0.131-1.121,0.422-1.552,0.861l-4.911,6.301L39.339,82.574c-0.619-0.639-1.476-0.979-2.354-0.938
			c-0.878,0.041-1.701,0.459-2.263,1.154l-18.839,23.221H56v-5.048L41.405,84.718z"/>
		<line style="fill:none;stroke:#000000;stroke-width:2;stroke-miterlimit:10;" x1="29" y1="96.151" x2="36.313" y2="87.011"/>
	</g>
	<rect x="2" y="62.011" style="fill:none;stroke:#000000;stroke-width:4;stroke-miterlimit:10;" width="60" height="53"/>
</g>
</svg>
