<?xml version="1.0" encoding="utf-8"?>
<!-- Generator: Adobe Illustrator 16.0.0, SVG Export Plug-In . SVG Version: 6.00 Build 0)  -->
<!DOCTYPE svg PUBLIC "-//W3C//DTD SVG 1.1//EN" "http://www.w3.org/Graphics/SVG/1.1/DTD/svg11.dtd">
<svg version="1.1" id="Layer_1" xmlns="http://www.w3.org/2000/svg" xmlns:xlink="http://www.w3.org/1999/xlink" x="0px" y="0px"
	 width="157.199px" height="135px" viewBox="0 -23.544 157.199 135" enable-background="new 0 -23.544 157.199 135"
	 xml:space="preserve">
<g>
	<path fill="#FFFFFF" stroke="#000000" stroke-width="2" stroke-miterlimit="10" d="M78.198,51.676c0,4.264-3.456,7.72-7.72,7.72
		H8.72c-4.264,0-7.72-3.456-7.72-7.72v-7.723c0-2.131,1.729-3.859,3.859-3.859h69.479c2.131,0,3.859,1.729,3.859,3.859v7.723H78.198
		z"/>
	<path fill="#FFFFFF" stroke="#000000" stroke-width="3" stroke-miterlimit="10" d="M8.727,28.519v19.295
		c0,21.319,13.824,38.599,30.876,38.599c17.057,0,30.875-17.281,30.875-38.596V28.519C70.478-7.506,8.727-7.507,8.727,28.519z"/>
	<path fill="#FFFFFF" stroke="#000000" stroke-width="2" stroke-miterlimit="10" d="M20.308,47.816c0,2.132,1.729,3.856,3.857,3.856
		c2.131,0,3.86-1.725,3.86-3.856c0-2.133-1.729-3.859-3.86-3.859C22.036,43.956,20.308,45.684,20.308,47.816z"/>
	<path fill="#FFFFFF" stroke="#000000" stroke-width="2" stroke-miterlimit="10" d="M51.185,47.816c0,2.132,1.729,3.856,3.855,3.856
		c2.134,0,3.86-1.725,3.86-3.856c0-2.133-1.727-3.859-3.86-3.859C52.913,43.957,51.185,45.684,51.185,47.816z"/>
	<polyline fill="none" stroke="#000000" stroke-width="2" stroke-miterlimit="10" points="8.727,43.956 12.588,43.956 
		16.445,24.656 55.04,16.938 62.761,24.658 66.623,43.957 70.478,43.957 	"/>
	<path fill="#FFFFFF" stroke="#000000" stroke-width="2" stroke-miterlimit="10" d="M39.603,67.111
		c6.397,0,11.582-5.182,11.582-11.575h-23.16C28.025,61.93,33.209,67.111,39.603,67.111z"/>
	<path fill="#FFFFFF" stroke="#000000" stroke-miterlimit="10" d="M39.605,49.02c-1.727,0-3.126,1.398-3.126,3.123l6.25,0.001
		C42.729,50.418,41.331,49.02,39.605,49.02z"/>
</g>
<path fill="none" stroke="#000000" stroke-width="2" stroke-miterlimit="10" d="M47.742,85.243"/>
<line fill="none" stroke="#000000" stroke-width="2" stroke-miterlimit="10" x1="121.199" y1="8.23" x2="157.199" y2="8.23"/>
<line fill="none" stroke="#000000" stroke-width="2" stroke-miterlimit="10" x1="121.199" y1="13.23" x2="157.199" y2="13.23"/>
<line fill="none" stroke="#000000" stroke-width="2" stroke-miterlimit="10" x1="121.199" y1="18.23" x2="157.199" y2="18.23"/>
<line fill="none" stroke="#000000" stroke-width="2" stroke-miterlimit="10" x1="121.199" y1="23.23" x2="148.199" y2="23.23"/>
<rect x="94.199" y="8.23" fill="none" stroke="#000000" stroke-width="2" stroke-miterlimit="10" width="18" height="15"/>
<line fill="none" stroke="#000000" stroke-miterlimit="10" x1="94.199" y1="8.673" x2="112.199" y2="23.673"/>
<line fill="none" stroke="#000000" stroke-miterlimit="10" x1="112.199" y1="8.673" x2="94.199" y2="23.673"/>
<line fill="none" stroke="#000000" stroke-width="2" stroke-miterlimit="10" x1="121.199" y1="38.23" x2="157.199" y2="38.23"/>
<line fill="none" stroke="#000000" stroke-width="2" stroke-miterlimit="10" x1="121.199" y1="43.23" x2="157.199" y2="43.23"/>
<line fill="none" stroke="#000000" stroke-width="2" stroke-miterlimit="10" x1="121.199" y1="48.23" x2="157.199" y2="48.23"/>
<line fill="none" stroke="#000000" stroke-width="2" stroke-miterlimit="10" x1="121.199" y1="53.23" x2="148.199" y2="53.23"/>
<rect x="94.199" y="38.23" fill="none" stroke="#000000" stroke-width="2" stroke-miterlimit="10" width="18" height="15"/>
<line fill="none" stroke="#000000" stroke-miterlimit="10" x1="94.199" y1="38.673" x2="112.199" y2="53.672"/>
<line fill="none" stroke="#000000" stroke-miterlimit="10" x1="112.199" y1="38.673" x2="94.199" y2="53.672"/>
<line fill="none" stroke="#000000" stroke-width="2" stroke-miterlimit="10" x1="121.199" y1="68.23" x2="157.199" y2="68.23"/>
<line fill="none" stroke="#000000" stroke-width="2" stroke-miterlimit="10" x1="121.199" y1="73.23" x2="157.199" y2="73.23"/>
<line fill="none" stroke="#000000" stroke-width="2" stroke-miterlimit="10" x1="121.199" y1="78.23" x2="157.199" y2="78.23"/>
<line fill="none" stroke="#000000" stroke-width="2" stroke-miterlimit="10" x1="121.199" y1="83.23" x2="148.199" y2="83.23"/>
<rect x="94.199" y="68.23" fill="none" stroke="#000000" stroke-width="2" stroke-miterlimit="10" width="18" height="15"/>
<line fill="none" stroke="#000000" stroke-miterlimit="10" x1="94.199" y1="68.672" x2="112.199" y2="83.672"/>
<line fill="none" stroke="#000000" stroke-miterlimit="10" x1="112.199" y1="68.672" x2="94.199" y2="83.672"/>
<polyline fill="none" stroke="#000000" stroke-miterlimit="10" points="9.026,41.281 13.169,20.236 55.592,10.459 67.191,21.894 
	70.672,39.127 "/>
<line fill="none" stroke="#000000" stroke-miterlimit="10" x1="12.175" y1="14.934" x2="54.598" y2="5.321"/>
<line fill="none" stroke="#000000" stroke-miterlimit="10" x1="16.649" y1="9.465" x2="45.317" y2="2.173"/>
</svg>
