<?xml version="1.0" encoding="utf-8"?>
<!-- Generator: Adobe Illustrator 16.0.0, SVG Export Plug-In . SVG Version: 6.00 Build 0)  -->
<!DOCTYPE svg PUBLIC "-//W3C//DTD SVG 1.1//EN" "http://www.w3.org/Graphics/SVG/1.1/DTD/svg11.dtd">
<svg version="1.1" id="Layer_1" xmlns="http://www.w3.org/2000/svg" xmlns:xlink="http://www.w3.org/1999/xlink" x="0px" y="0px"
	 width="130px" height="135px" viewBox="0 -10.742 130 135" enable-background="new 0 -10.742 130 135" xml:space="preserve">
<path fill="none" stroke="#000000" stroke-width="2" stroke-miterlimit="10" d="M72.991,110.758"/>
<g>
	<circle fill="#FFFFFF" stroke="#000000" stroke-width="4" stroke-miterlimit="10" cx="68.5" cy="56.758" r="49.225"/>
	<path fill="none" stroke="#000000" stroke-miterlimit="10" d="M68.5,7.533c-38.289,0-38.289,98.448,0,98.448"/>
	<path fill="none" stroke="#000000" stroke-width="2" stroke-miterlimit="10" d="M72.594,7.533"/>
	<line fill="none" stroke="#000000" stroke-miterlimit="10" x1="68.5" y1="7.533" x2="68.5" y2="105.982"/>
	<line fill="none" stroke="#000000" stroke-miterlimit="10" x1="19.275" y1="56.758" x2="117.725" y2="56.758"/>
	<line fill="none" stroke="#000000" stroke-miterlimit="10" x1="27.479" y1="32.146" x2="110.98" y2="32.146"/>
	<line fill="none" stroke="#000000" stroke-miterlimit="10" x1="27.479" y1="81.37" x2="109.521" y2="81.37"/>
	<path fill="none" stroke="#000000" stroke-miterlimit="10" d="M68.497,7.533c38.29,0,38.29,98.448,0,98.448"/>
	<path fill="none" stroke="#000000" stroke-miterlimit="10" d="M108.061,16.759C97.896,6.707,83.923,0.5,68.5,0.5"/>
	<path fill="none" stroke="#000000" stroke-miterlimit="10" d="M27.959,95.762c10.235,10.636,24.615,17.254,40.541,17.254"/>
</g>
<g>
	<polygon fill="#FFFFFF" stroke="#000000" stroke-width="3" stroke-miterlimit="10" points="47.5,46.016 39.499,46.016 39.5,55.016 
		21.5,46.016 1.5,46.016 1.5,13.016 47.5,13.016 	"/>
	<line fill="none" stroke="#000000" stroke-width="2" stroke-miterlimit="10" x1="10" y1="23.016" x2="39" y2="23.016"/>
	<line fill="none" stroke="#000000" stroke-width="2" stroke-miterlimit="10" x1="10" y1="29.016" x2="38.5" y2="29.016"/>
	<line fill="none" stroke="#000000" stroke-width="2" stroke-miterlimit="10" x1="10" y1="35.016" x2="25" y2="35.016"/>
</g>
<g>
	<g>
		<polygon fill="#FFFFFF" stroke="#000000" stroke-width="3" stroke-miterlimit="10" points="86.5,72.016 94.501,72.016 
			94.5,81.016 112.5,72.016 128.5,72.016 128.5,39.016 86.5,39.016 		"/>
	</g>
	<g>
		<path fill="#000000" d="M113.15,48.758c1.386,0,2.631,0.77,3.25,2.008c0.604,1.21,0.494,2.63-0.287,3.729l-8.344,8.908
			l-8.345-8.908c-0.78-1.099-0.892-2.518-0.286-3.729c0.619-1.238,1.864-2.008,3.25-2.008c1.538,0,2.932,0.916,3.547,2.334
			l1.836,4.222l1.834-4.222C110.221,49.674,111.611,48.758,113.15,48.758 M113.15,46.758c-2.402,0-4.475,1.45-5.381,3.537
			c-0.906-2.087-2.979-3.537-5.381-3.537c-2.134,0-4.084,1.205-5.039,3.113c-0.953,1.909-0.748,4.193,0.533,5.9l9.823,10.488h0.125
			l9.823-10.488c1.281-1.707,1.488-3.991,0.533-5.9C117.234,47.963,115.284,46.758,113.15,46.758L113.15,46.758z"/>
	</g>
</g>
<path fill="none" stroke="#000000" stroke-width="0.2" stroke-miterlimit="10" d="M108.771,68.771"/>
<circle fill="#FFFFFF" stroke="#000000" stroke-width="3" stroke-miterlimit="10" cx="42.5" cy="81.016" r="5"/>
<circle fill="#FFFFFF" stroke="#000000" stroke-width="3" stroke-miterlimit="10" cx="68.5" cy="32.016" r="5"/>
</svg>
