<?xml version="1.0" encoding="iso-8859-1"?>
<!-- Generator: Adobe Illustrator 15.0.0, SVG Export Plug-In . SVG Version: 6.00 Build 0)  -->
<!DOCTYPE svg PUBLIC "-//W3C//DTD SVG 1.1//EN" "http://www.w3.org/Graphics/SVG/1.1/DTD/svg11.dtd">
<svg version="1.1" id="Layer_10" xmlns="http://www.w3.org/2000/svg" xmlns:xlink="http://www.w3.org/1999/xlink" x="0px" y="0px"
	 width="238.043px" height="216.292px" viewBox="0 0 238.043 216.292" style="enable-background:new 0 0 238.043 216.292;"
	 xml:space="preserve">
<g>
	<g>
		
			<line style="fill:#FFFFFF;stroke:#000;stroke-width:4;stroke-miterlimit:10;" x1="147.623" y1="37.276" x2="76.126" y2="201.345"/>
		<g>
			<circle style="fill:#FFFFFF;stroke:#000;stroke-width:4;stroke-miterlimit:10;" cx="115.087" cy="113.243" r="70.783"/>
			<polyline style="fill:none;stroke:#000;stroke-width:2;stroke-miterlimit:10;" points="180.208,86.081 151.259,71.606 
				149.318,65.553 131.914,61.932 129.138,68.317 141.769,71.58 152.435,92.138 156.563,109.183 158.597,118.722 156.412,128.487 
				158.642,129.044 162.093,133.43 165.604,145.26 165.815,152.357 169.898,149.6 171.406,136.655 170.155,129.105 176.063,119.31 
				185.399,114.77 			"/>
			<polyline style="fill:none;stroke:#000;stroke-width:2;stroke-miterlimit:10;" points="170.005,158.632 158.389,151.963 
				149.085,155.4 139.901,166.048 126.29,176.398 110.383,183.798 			"/>
			<polyline style="fill:none;stroke:#000;stroke-width:2;stroke-miterlimit:10;" points="84.752,48.174 95.178,55.238 
				107.269,54.591 123.802,59.249 120.316,65.325 109.427,69.026 101.871,76.706 97.213,73.838 100.297,66.744 94.005,65.695 
				88.484,72.573 85.399,79.667 75.93,83.985 65.227,91.141 56.652,99.222 54.863,91.696 44.529,105.761 			"/>
			<polyline style="fill:none;stroke:#000;stroke-width:2;stroke-miterlimit:10;" points="48.045,132.596 55.818,122.479 
				64.763,121.307 72.443,128.865 75.62,142.899 70.592,152.522 65.626,150.363 58.964,142.404 49.926,141.85 			"/>
			<polygon style="fill:none;stroke:#000;stroke-width:2;stroke-miterlimit:10;" points="77.996,96.693 69.113,105.484 
				75.065,113.134 79.877,105.947 			"/>
			<polygon style="fill:none;stroke:#000;stroke-width:2;stroke-miterlimit:10;" points="81.512,123.528 78.828,131.641 
				88.051,135.65 92.585,142.683 101.252,136.33 94.991,129.389 			"/>
			<polygon style="fill:none;stroke:#000;stroke-width:2;stroke-miterlimit:10;" points="87.958,153.324 75.835,159.864 
				79.383,161.406 89.87,156.687 			"/>
		</g>
	</g>
	<path style="fill:#FFFFFF;stroke:#000;stroke-width:4;stroke-miterlimit:10;" d="M160.104,214.292H52.502
		c0-7.69,6.234-13,13.925-13h79.753C153.871,201.292,160.104,206.601,160.104,214.292z"/>
	
		<line style="fill:none;stroke:#000;stroke-width:2;stroke-miterlimit:10;" x1="55.907" y1="207.292" x2="158.907" y2="207.292"/>
</g>
<g>
	<g id="XMLID_11_">
		<g>
			<path style="fill:#FFFFFF;" d="M203.002,40.611c-3.935,5.974-11.934,7.777-18.069,3.997c-6.249-3.85-8.194-12.039-4.343-18.287
				c3.852-6.251,12.041-8.197,18.29-4.347c6.252,3.852,8.197,12.041,4.344,18.292C203.152,40.382,203.077,40.497,203.002,40.611z
				 M183.229,28.833l14.426-3.426C192.727,22.371,186.266,23.906,183.229,28.833z"/>
			<path style="fill:#FFFFFF;" d="M197.655,25.407l-14.426,3.426C186.266,23.906,192.727,22.371,197.655,25.407z"/>
		</g>
		<g>
			<path style="fill:none;stroke:#000;stroke-width:2;stroke-miterlimit:10;" d="M180.59,26.32
				c-3.851,6.249-1.906,14.437,4.343,18.287c6.136,3.781,14.134,1.977,18.069-3.997c0.075-0.114,0.15-0.229,0.221-0.345
				c3.853-6.252,1.908-14.44-4.344-18.292C192.63,18.124,184.442,20.069,180.59,26.32z"/>
			<path style="fill:none;stroke:#000;stroke-width:2;stroke-miterlimit:10;" d="M197.655,25.407
				c-4.928-3.036-11.389-1.501-14.426,3.426"/>
			
				<line style="fill:none;stroke:#000;stroke-width:2;stroke-miterlimit:10;" x1="197.601" y1="21.164" x2="237.726" y2="31.857"/>
			
				<line style="fill:none;stroke:#000;stroke-width:2;stroke-miterlimit:10;" x1="183.645" y1="43.813" x2="211.417" y2="74.554"/>
			<polyline style="fill:none;stroke:#000;stroke-width:2;stroke-miterlimit:10;" points="199.695,38.698 203.002,40.611 
				237.542,60.614 			"/>
		</g>
	</g>
</g>
<path style="fill:#FFFFFF;stroke:#000;stroke-width:2;stroke-miterlimit:10;" d="M192.562,174.201l3.181-5.815
	c0.276-0.504,0.805-0.818,1.38-0.818s1.104,0.314,1.38,0.818l3.18,5.815l5.814,3.18c0.504,0.276,0.818,0.805,0.818,1.38
	s-0.314,1.104-0.818,1.38l-5.814,3.18l-3.181,5.815c-0.276,0.504-0.805,0.818-1.38,0.818s-1.104-0.314-1.38-0.818l-3.18-5.815
	l-5.815-3.18c-0.504-0.276-0.818-0.805-0.818-1.38s0.314-1.104,0.818-1.38L192.562,174.201z"/>
<path style="fill:#FFFFFF;stroke:#000;stroke-width:2;stroke-miterlimit:10;" d="M102.179,5.754l2.28-4.168
	C104.657,1.225,105.036,1,105.448,1s0.792,0.225,0.989,0.586l2.279,4.168l4.167,2.279c0.362,0.198,0.586,0.577,0.586,0.989
	s-0.225,0.792-0.586,0.989l-4.167,2.279l-2.28,4.168c-0.198,0.362-0.577,0.586-0.989,0.586s-0.792-0.225-0.989-0.586l-2.279-4.168
	l-4.167-2.279c-0.362-0.198-0.586-0.577-0.586-0.989s0.225-0.792,0.586-0.989L102.179,5.754z"/>
<g id="XMLID_7_">
	<path style="fill:#FFFFFF;stroke:#000;stroke-width:2;stroke-miterlimit:10;" d="M23.801,21.348l-1.76,0.107
		c-4.406,0.269-7.908,3.763-8.201,8.168c-0.367,5.499,0.366,10.039,2.254,14.731c1.449,3.599,3.585,6.81,6.329,9.554l2.131,2.131
		l2.626,2.626l3.503,3.503l4.378,4.378l35.025-35.024l-4.378-4.378l-3.504-3.503l-4.378-4.378l-17.656,3.284"/>
	<path style="fill:#FFFFFF;stroke:#000;stroke-width:2;stroke-miterlimit:10;" d="M28.047,42.041
		c-2.115-4.16-3.111-8.174-3.34-12.288"/>
	<path style="fill:#FFFFFF;stroke:#000;stroke-width:2;stroke-miterlimit:10;" d="M57.827,19.264L34.185,42.906l-2.626,2.626
		l-3.5-3.503l-0.007,0.007l-0.004,0.004l-3.494,3.494c-2.9,2.9-2.9,7.606,0,10.506"/>
	<line style="fill:#FFFFFF;stroke:#000;stroke-miterlimit:10;" x1="30.684" y1="62.169" x2="65.709" y2="27.146"/>
	<line style="fill:#FFFFFF;stroke:#000;stroke-miterlimit:10;" x1="27.18" y1="58.666" x2="62.205" y2="23.642"/>
	<path style="fill:#FFFFFF;stroke:#000;stroke-width:2;stroke-miterlimit:10;" d="M24.707,29.753
		c0.53,0.746,1.175,1.404,1.911,1.949c1.443,1.073,3.229,1.708,5.165,1.708c4.788-0.001,8.668-3.882,8.669-8.669
		c-0.002-0.757-0.098-1.491-0.283-2.189l0.002-0.002c-0.973-3.727-4.359-6.477-8.389-6.478c-2.533,0-4.813,1.088-6.4,2.823
		c-0.657,0.717-1.193,1.545-1.579,2.452"/>
	<path style="fill:#FFFFFF;stroke:#000;stroke-width:2;stroke-miterlimit:10;" d="M23.801,21.348
		c-0.442,1.041-0.688,2.19-0.688,3.392c0.001,1.866,0.591,3.598,1.595,5.012"/>
	<path style="fill:none;stroke:#000;stroke-width:2;stroke-miterlimit:10;" d="M22.525,3.782l-1.013,1.012
		c-1.357,1.357-2.119,3.198-2.119,5.115c0.001,1.92,0.76,3.76,2.117,5.117l3.872,3.868l2.396,2.396"/>
	<path style="fill:#FFFFFF;stroke:#000;stroke-miterlimit:10;" d="M26.092,22.618c-0.803,2.156-0.338,4.681,1.396,6.415"/>
</g>
<path style="fill:#FFFFFF;stroke:#000;stroke-width:2;stroke-miterlimit:10;" d="M7.633,111.562l3.181-5.815
	c0.276-0.504,0.805-0.818,1.38-0.818s1.104,0.314,1.38,0.818l3.18,5.815l5.814,3.18c0.504,0.276,0.818,0.805,0.818,1.38
	s-0.314,1.104-0.818,1.38l-5.814,3.18l-3.181,5.815c-0.276,0.504-0.805,0.818-1.38,0.818s-1.104-0.314-1.38-0.818l-3.18-5.815
	l-5.815-3.18C1.314,117.227,1,116.697,1,116.122s0.314-1.104,0.818-1.38L7.633,111.562z"/>
<g>
	
		<circle style="fill:none;stroke:#000;stroke-linecap:square;stroke-linejoin:bevel;stroke-miterlimit:10;" cx="34.407" cy="171.792" r="1.25"/>
	
		<line style="fill:none;stroke:#000;stroke-linecap:square;stroke-linejoin:bevel;stroke-miterlimit:10;" x1="34.407" y1="158.292" x2="34.407" y2="167.292"/>
	
		<line style="fill:none;stroke:#000;stroke-linecap:square;stroke-linejoin:bevel;stroke-miterlimit:10;" x1="34.407" y1="176.292" x2="34.407" y2="185.292"/>
	
		<line style="fill:none;stroke:#000;stroke-linecap:square;stroke-linejoin:bevel;stroke-miterlimit:10;" x1="41.907" y1="171.792" x2="38.907" y2="171.792"/>
	
		<line style="fill:none;stroke:#000;stroke-linecap:square;stroke-linejoin:bevel;stroke-miterlimit:10;" x1="29.907" y1="171.792" x2="26.907" y2="171.792"/>
</g>
<g>
	
		<circle style="fill:none;stroke:#000;stroke-linecap:square;stroke-linejoin:bevel;stroke-miterlimit:10;" cx="223.407" cy="122.792" r="1.25"/>
	
		<line style="fill:none;stroke:#000;stroke-linecap:square;stroke-linejoin:bevel;stroke-miterlimit:10;" x1="223.407" y1="109.292" x2="223.407" y2="118.292"/>
	
		<line style="fill:none;stroke:#000;stroke-linecap:square;stroke-linejoin:bevel;stroke-miterlimit:10;" x1="223.407" y1="127.292" x2="223.407" y2="136.292"/>
	
		<line style="fill:none;stroke:#000;stroke-linecap:square;stroke-linejoin:bevel;stroke-miterlimit:10;" x1="230.907" y1="122.792" x2="227.907" y2="122.792"/>
	
		<line style="fill:none;stroke:#000;stroke-linecap:square;stroke-linejoin:bevel;stroke-miterlimit:10;" x1="218.907" y1="122.792" x2="215.907" y2="122.792"/>
</g>
</svg>
